<svg width="17" height="21" viewBox="0 0 17 21" fill="none" xmlns="http://www.w3.org/2000/svg">
<path d="M8.25 4.5C7.5083 4.5 6.7833 4.71993 6.16661 5.13199C5.54993 5.54404 5.06928 6.12971 4.78545 6.81494C4.50162 7.50016 4.42736 8.25416 4.57205 8.9816C4.71675 9.709 5.0739 10.3772 5.59835 10.9017C6.1228 11.4261 6.791 11.7833 7.5184 11.9279C8.2458 12.0726 8.9998 11.9984 9.6851 11.7145C10.3703 11.4307 10.956 10.9501 11.368 10.3334C11.7801 9.7167 12 8.9917 12 8.25C12 7.25544 11.6049 6.30161 10.9017 5.59835C10.1984 4.89509 9.2446 4.5 8.25 4.5ZM8.25 10.5C7.805 10.5 7.37 10.368 7 10.1208C6.63 9.8736 6.3416 9.5222 6.17127 9.111C6.00097 8.6999 5.95642 8.2475 6.04323 7.81105C6.13005 7.37459 6.3443 6.97368 6.659 6.65901C6.9737 6.34434 7.3746 6.13005 7.811 6.04323C8.2475 5.95642 8.6999 6.00097 9.111 6.17127C9.5222 6.34157 9.8736 6.62996 10.1208 6.99997C10.368 7.36998 10.5 7.80499 10.5 8.25C10.5 8.8467 10.2629 9.419 9.841 9.841C9.419 10.2629 8.8467 10.5 8.25 10.5ZM8.25 0C6.06273 0.00248 3.96575 0.87247 2.41911 2.41911C0.87247 3.96575 0.00248 6.06273 0 8.25C0 11.1938 1.36031 14.3138 3.9375 17.2734C5.09552 18.6108 6.3989 19.8151 7.8234 20.8641C7.9495 20.9524 8.0998 20.9998 8.2537 20.9998C8.4077 20.9998 8.558 20.9524 8.6841 20.8641C10.106 19.8147 11.4068 18.6104 12.5625 17.2734C15.1359 14.3138 16.5 11.1938 16.5 8.25C16.4975 6.06273 15.6275 3.96575 14.0809 2.41911C12.5343 0.87247 10.4373 0.00248 8.25 0ZM8.25 19.3125C6.7003 18.0938 1.5 13.6172 1.5 8.25C1.5 6.45979 2.21116 4.7429 3.47703 3.47703C4.7429 2.21116 6.4598 1.5 8.25 1.5C10.0402 1.5 11.7571 2.21116 13.023 3.47703C14.2888 4.7429 15 6.45979 15 8.25C15 13.6153 9.7997 18.0938 8.25 19.3125Z" fill="#175EA8"/>
</svg>
